<svg xmlns="http://www.w3.org/2000/svg" viewBox="0 0 392.88 231.95"><defs><style>.cls-1{fill:#8364e2;}</style></defs><g id="Layer_2" data-name="Layer 2"><g id="Layer_1-2" data-name="Layer 1"><g id="Layer_2-2" data-name="Layer 2"><g id="Layer_1-2-2" data-name="Layer 1-2"><g id="Layer_2-2-2" data-name="Layer 2-2"><g id="Layer_1-2-2-2" data-name="Layer 1-2-2"><path class="cls-1" d="M392.88,201.8c-4,11.39-13.4,18.35-21.89,25.85-6.81,6-17.92,5.5-25.24-.11a49.88,49.88,0,0,1-4.82-4.37Q270.16,152.42,199.45,81.58c-2.54-2.54-3.74-2.28-6.1.09q-70.92,71.13-142,142.12c-8.53,8.53-18.77,10.69-27.66,4.72A73.84,73.84,0,0,1,3.27,208C-2,200.09-.66,190.4,5.45,183.11c1-1.17,2.06-2.27,3.14-3.36Q93.49,94.66,178.43,9.57a69.25,69.25,0,0,1,5.35-4.93c7.79-6.21,17.6-6.18,25.36.05a64,64,0,0,1,5.06,4.68q85.14,85.41,170.3,170.79a45.3,45.3,0,0,1,8.38,12.44Z"/></g></g></g></g></g></g></svg>