<svg width="55" height="54" viewBox="0 0 55 54" fill="none" xmlns="http://www.w3.org/2000/svg">
<path d="M5.5 48.5H8.5M41.5 48.5H38.5M8.5 48.5V10C8.5 7.79086 10.2909 6 12.5 6H34.5C36.7091 6 38.5 7.79086 38.5 10V48.5M8.5 48.5H38.5" stroke="white" stroke-width="2" stroke-linecap="round"/>
<path d="M14.5 22V15.5C14.5 14.3954 15.3954 13.5 16.5 13.5H30.5C31.6046 13.5 32.5 14.3954 32.5 15.5V22C32.5 23.1046 31.6046 24 30.5 24H16.5C15.3954 24 14.5 23.1046 14.5 22Z" stroke="white" stroke-width="2"/>
<path d="M38.5 33C38.5 40.5 49 41.5 49 33C49 27 49 25 49 18.5C49 15.5 48 15.5 43.5 12" stroke="white" stroke-width="2" stroke-linecap="round"/>
<line x1="10.0858" y1="45.5858" x2="46.0858" y2="9.58579" stroke="white" stroke-width="4"/>
<rect x="2.5" y="2" width="50" height="50" rx="25" stroke="white" stroke-width="2"/>
</svg>
