<svg width="16" height="17" viewBox="0 0 16 17" fill="none" xmlns="http://www.w3.org/2000/svg">
<path d="M10.4509 0.81311V4.00727C10.4509 4.21905 10.5351 4.42216 10.6848 4.57192C10.8346 4.72167 11.0377 4.8058 11.2495 4.8058H14.4436" stroke="#bbb" stroke-width="1.59708" stroke-linecap="round" stroke-linejoin="round"/>
<path d="M3.26416 4.8058V2.41019C3.26416 1.98662 3.43242 1.58039 3.73193 1.28088C4.03144 0.981373 4.43767 0.81311 4.86124 0.81311H10.451L14.4437 4.8058V13.5897C14.4437 14.0133 14.2754 14.4195 13.9759 14.719C13.6764 15.0185 13.2702 15.1868 12.8466 15.1868H8.85393" stroke="#bbb" stroke-width="1.59708" stroke-linecap="round" stroke-linejoin="round"/>
<path d="M4.06261 11.9926C5.38567 11.9926 6.45822 10.9201 6.45822 9.59703C6.45822 8.27397 5.38567 7.20142 4.06261 7.20142C2.73955 7.20142 1.66699 8.27397 1.66699 9.59703C1.66699 10.9201 2.73955 11.9926 4.06261 11.9926Z" stroke="#bbb" stroke-width="1.59708" stroke-linecap="round" stroke-linejoin="round"/>
<path d="M2.8648 11.9927L1.66699 15.9854L4.06261 14.7876L6.45822 15.9854L5.26042 11.9927" stroke="#bbb" stroke-width="1.59708" stroke-linecap="round" stroke-linejoin="round"/>
</svg>
