<svg width="20" height="20" viewBox="0 0 20 20" fill="none" xmlns="http://www.w3.org/2000/svg">
<path d="M9.68363 17.9854C14.0125 17.9854 17.669 14.3289 17.669 10C17.669 5.67116 14.0125 2.01465 9.68363 2.01465C5.35475 2.01465 1.69824 5.67116 1.69824 10C1.69824 14.3289 5.35475 17.9854 9.68363 17.9854ZM9.68363 3.61173C13.1469 3.61173 16.0719 6.53677 16.0719 10C16.0719 13.4633 13.1469 16.3883 9.68363 16.3883C6.22037 16.3883 3.29532 13.4633 3.29532 10C3.29532 6.53677 6.22037 3.61173 9.68363 3.61173Z" fill="#040404"/>
<path d="M9.68386 13.9927C10.4033 13.9927 11.7449 13.8586 12.644 12.961L11.5149 11.8303C11.1612 12.184 10.476 12.3956 9.68386 12.3956C8.38543 12.3956 7.28824 11.2984 7.28824 10C7.28824 8.70159 8.38543 7.6044 9.68386 7.6044C10.4768 7.6044 11.162 7.81601 11.5149 8.16897L12.644 7.03984C11.7457 6.14148 10.4033 6.00732 9.68386 6.00732C7.48228 6.00732 5.69116 7.79845 5.69116 10C5.69116 12.2016 7.48228 13.9927 9.68386 13.9927Z" fill="#040404"/>
</svg>
